<?xml version="1.0" encoding="UTF-8"?>
<svg version="1.1" xmlns="http://www.w3.org/2000/svg" width="1024" height="645">
<path d="M0 0 C337.92 0 675.84 0 1024 0 C1024 212.85 1024 425.7 1024 645 C686.08 645 348.16 645 0 645 C0 432.15 0 219.3 0 0 Z " fill="#FBFBFB" transform="translate(0,0)"/>
<path d="M0 0 C0.74523926 0.16193848 1.49047852 0.32387695 2.25830078 0.49072266 C35.3750231 7.87803682 69.48609349 20.7757834 97 41 C97.60328125 41.43779785 98.2065625 41.8755957 98.828125 42.32666016 C105.81665662 47.40813431 112.71240184 52.62106881 119.375 58.125 C119.9011792 58.55151855 120.4273584 58.97803711 120.96948242 59.41748047 C124.27808583 62.20591302 126.97538258 65.14483699 129.6484375 68.55078125 C137.72492473 78.40381902 144.16275757 82.99558916 156.74707031 84.47680664 C159.71277293 84.76383471 162.67666305 84.97474561 165.65136719 85.14233398 C166.70535706 85.20324974 166.70535706 85.20324974 167.78063965 85.26539612 C169.71091246 85.36136024 171.64318801 85.4142552 173.57519531 85.46435547 C178.47908752 86.23133148 181.54037568 88.54037568 185 92 C186.9007177 92.32002103 186.9007177 92.32002103 189.0703125 92.30859375 C189.885 92.33373047 190.6996875 92.35886719 191.5390625 92.38476562 C193.2395169 92.41944257 194.94004307 92.45078875 196.640625 92.47851562 C203.20910073 92.68957166 208.900655 93.52600957 214.20703125 97.76171875 C214.73683594 98.39722656 215.26664063 99.03273438 215.8125 99.6875 C216.62654297 100.62142578 216.62654297 100.62142578 217.45703125 101.57421875 C222.26733147 109.13674138 222.43001094 116.07957672 222.38095093 124.81539917 C222.38797089 126.73842194 222.38797089 126.73842194 222.39513266 128.70029366 C222.40761574 132.24308781 222.40148466 135.78563843 222.39217401 139.32843328 C222.38537261 143.15539371 222.39587023 146.98231294 222.40411377 150.80926514 C222.41744245 158.30063917 222.41457701 165.79192295 222.40587585 173.2833005 C222.39909529 179.37380215 222.39818419 185.46427853 222.4014473 191.55478287 C222.401907 192.42227515 222.40236669 193.28976743 222.40284032 194.18354736 C222.40379952 195.94597578 222.40477216 197.70840419 222.4057581 199.4708326 C222.41430972 215.99171779 222.40448196 232.51255301 222.388357 249.03343 C222.37495876 263.19890675 222.37727827 277.36430974 222.39111328 291.52978516 C222.40718129 307.98924573 222.41348078 324.44866249 222.40427649 340.90812981 C222.40332087 342.66461507 222.40237776 344.42110033 222.4014473 346.1775856 C222.40098447 347.0417492 222.40052164 347.9059128 222.40004479 348.79626318 C222.39745821 354.87608676 222.40181883 360.95588249 222.40888596 367.03570175 C222.41731493 374.44997195 222.41499169 381.86414691 222.39904372 389.27840625 C222.39117904 393.05890143 222.38803841 396.83923803 222.39799118 400.6197319 C222.40863128 404.72350282 222.39589525 408.82687608 222.38095093 412.93063354 C222.39098918 414.71139213 222.39098918 414.71139213 222.40123022 416.52812564 C222.33687681 425.64872852 221.44306419 434.69844504 214.82452393 441.54307556 C207.39141723 447.4785827 198.89700498 447.47997155 189.77729034 447.21076775 C187.5879267 447.15090279 185.40049007 447.12514064 183.21038818 447.10902405 C176.99205607 447.06116195 170.77579433 446.98485464 164.55957031 446.81176758 C145.18678675 445.39434474 145.18678675 445.39434474 128.08892822 452.38653564 C125.93495643 454.6211701 124.01192166 456.94271715 122.18737793 459.45223999 C120.53318292 461.60850113 118.58023758 463.14856603 116.40625 464.76171875 C115.75672363 465.25494629 115.10719727 465.74817383 114.43798828 466.25634766 C113.47868408 466.96476807 113.47868408 466.96476807 112.5 467.6875 C111.7869873 468.22165527 111.07397461 468.75581055 110.33935547 469.30615234 C108.90356213 470.37779752 107.4646955 471.44534012 106.02246094 472.50830078 C104.16498541 473.87831231 102.3200834 475.26365616 100.4765625 476.65234375 C91.81997361 483.08923008 82.64620249 488.50175195 73.23095703 493.75097656 C71.27702836 494.84490292 69.33831106 495.96069424 67.40234375 497.0859375 C47.9339494 508.03830631 26.57637791 515.46910948 5 521 C3.79706299 521.3105835 3.79706299 521.3105835 2.56982422 521.62744141 C-17.02834554 526.58229284 -36.68176797 528.51174133 -56.8684082 528.39111328 C-60.06439743 528.37499043 -63.25912601 528.39109636 -66.45507812 528.41015625 C-79.87967656 528.42356383 -92.78261571 527.32509244 -106 525 C-106.86265472 524.85049393 -107.72530945 524.70098785 -108.61410522 524.54695129 C-163.1430943 515.01316004 -216.81146226 487.18853774 -256 448 C-258.84323396 447.69512638 -258.84323396 447.69512638 -262.21875 447.74462891 C-263.5277124 447.73766998 -264.8366748 447.73071106 -266.18530273 447.72354126 C-267.23897537 447.72456282 -267.23897537 447.72456282 -268.31393433 447.72560501 C-270.51815043 447.72657045 -272.72187899 447.71362237 -274.92602539 447.69662476 C-281.1939707 447.65038638 -287.46187059 447.62579071 -293.72998047 447.61914062 C-297.56451414 447.61409154 -301.39854689 447.58966074 -305.23291016 447.55381393 C-306.68714371 447.54408331 -308.14144682 447.54164681 -309.59570312 447.54698563 C-327.91059952 447.61100263 -327.91059952 447.61100263 -334.93139648 441.25015259 C-339.35606497 436.48967414 -341.24867459 431.88941169 -341.25447559 425.35711002 C-341.26030779 424.2257182 -341.26613998 423.09432638 -341.27214891 421.92864996 C-341.26836958 420.69053059 -341.26459026 419.45241121 -341.26069641 418.17677307 C-341.26452196 416.85774693 -341.26834751 415.53872079 -341.27228898 414.17972416 C-341.28258493 410.51986637 -341.28038311 406.86010636 -341.27610838 403.20024049 C-341.27364407 399.25265401 -341.28265164 395.30509125 -341.29014587 391.35751343 C-341.30290292 383.62445076 -341.30468533 375.89142279 -341.30234561 368.15835137 C-341.30056348 361.87371588 -341.30230983 355.58909094 -341.30657005 349.30445671 C-341.30716524 348.41042482 -341.30776043 347.51639292 -341.30837366 346.59526915 C-341.30958539 344.77912021 -341.31079952 342.96297127 -341.31201603 341.14682233 C-341.32289536 324.11056342 -341.32072717 307.07432431 -341.31463119 290.03806429 C-341.30946119 274.44838207 -341.32071896 258.85876231 -341.33972941 243.26909245 C-341.35909497 227.26566364 -341.36736609 211.26226441 -341.36360615 195.25882381 C-341.36169222 186.272474 -341.36420036 177.28617738 -341.37832069 168.29983711 C-341.39021911 160.65006306 -341.39165668 153.00037492 -341.37953053 145.35059971 C-341.3736311 141.44707715 -341.37257165 137.54371186 -341.38453293 133.64019966 C-341.39535545 130.06681756 -341.392332 126.49372474 -341.37827124 122.92035639 C-341.37435551 121.015263 -341.38520101 119.11015694 -341.39656812 117.20509344 C-341.33145018 106.95833385 -341.33145018 106.95833385 -338 102 C-337.443125 101.13375 -336.88625 100.2675 -336.3125 99.375 C-331.49532842 94.42763459 -326.72642025 92.76011938 -319.96875 92.609375 C-317.81215091 92.63567499 -315.65571715 92.68295617 -313.5 92.75 C-312.39140625 92.76804687 -311.2828125 92.78609375 -310.140625 92.8046875 C-307.42616704 92.8514885 -304.71355284 92.91703625 -302 93 C-302.0314209 92.1435791 -302.0628418 91.2871582 -302.09521484 90.40478516 C-302.19840634 87.18059503 -302.27313731 83.95725509 -302.32958984 80.73193359 C-302.35948354 79.34493052 -302.40021646 77.95811182 -302.45263672 76.57177734 C-302.79120562 67.37730817 -302.19013207 60.25794627 -296 53 C-291.50490679 48.95977954 -287.18771742 47.87131646 -281.25024414 47.9375 C-280.06793716 47.946604 -278.88563019 47.95570801 -277.66749573 47.96508789 C-276.3863237 47.97660889 -275.10515167 47.98812988 -273.78515625 48 C-271.06965233 48.00463261 -268.35417506 48.00024156 -265.63867188 47.99609375 C-261.35940086 47.98991327 -257.08144575 47.99482834 -252.80249023 48.05126953 C-249.3358402 48.09599907 -245.87160306 48.0958334 -242.40481377 48.06713867 C-240.46404189 48.06262531 -238.52333307 48.10390532 -236.58302307 48.14648438 C-226.47676278 48.01197691 -221.35320448 44.42221445 -214 38 C-204.35310946 31.26074235 -193.60420522 26.03599329 -183 21 C-182.33226562 20.67676758 -181.66453125 20.35353516 -180.9765625 20.02050781 C-125.63325506 -6.6174347 -59.86842169 -13.01857783 0 0 Z " fill="#091520" transform="translate(573,79)"/>
<path d="M0 0 C1.31601196 -0.00111786 2.63202393 -0.00223572 3.98791504 -0.00338745 C33.97237386 -0.00804937 63.76326637 2.06397404 93.5625 5.375 C93.5625 98.765 93.5625 192.155 93.5625 288.375 C85.3125 286.725 77.0625 285.075 68.5625 283.375 C60.37226978 281.97983477 60.37226978 281.97983477 52.15991211 280.73950195 C50.22272433 280.46765109 48.28906769 280.1704088 46.35766602 279.86010742 C34.61202072 278.13694159 22.94164385 278.03668725 11.0847168 278.05932617 C7.66226695 278.06246581 4.24070183 278.03901891 0.81835938 278.01367188 C-36.07583049 277.9073973 -73.41108807 284.29654982 -106.4375 301.375 C-107.95730469 302.14650391 -107.95730469 302.14650391 -109.5078125 302.93359375 C-114.67435229 305.64356353 -119.34472951 308.59707798 -123.87890625 312.2734375 C-125.4375 313.375 -125.4375 313.375 -127.4375 313.375 C-127.66649994 278.76677151 -127.84265242 244.15871628 -127.94815329 209.54989351 C-127.96066003 205.46197204 -127.97360328 201.37405206 -127.98681641 197.28613281 C-127.98943951 196.47231808 -127.99206261 195.65850336 -127.99476521 194.82002757 C-128.03825235 181.65100328 -128.11708303 168.48241651 -128.20902796 155.31365158 C-128.30261719 141.79642226 -128.35810319 128.27942172 -128.37838495 114.76188171 C-128.39209149 106.42375174 -128.43534283 98.08685847 -128.51666467 89.74910931 C-128.56961683 84.02782311 -128.5854809 78.3071741 -128.57251377 72.58566077 C-128.56612134 69.28632434 -128.58126187 65.98959296 -128.62955475 62.69054222 C-128.91961142 41.8519223 -128.91961142 41.8519223 -125.25344467 36.63605881 C-122.76894686 34.09791533 -120.45212999 32.22906169 -117.4375 30.375 C-116.31336321 29.49926098 -115.18959227 28.62305185 -114.06640625 27.74609375 C-96.37178974 16.58834194 -77.44140317 8.61198161 -57 4.125 C-55.98389648 3.89816528 -55.98389648 3.89816528 -54.94726562 3.66674805 C-36.82463725 -0.01051763 -18.40995781 -0.02204906 0 0 Z " fill="#FAFAFA" transform="translate(648.4375,173.625)"/>
<path d="M0 0 C13.59649581 2.87502995 27.26469566 9.01027139 38.74702072 16.83121681 C41.92115928 19.02811459 41.92115928 19.02811459 45.17525101 20.67261314 C49.73810971 23.52759751 53.20065513 26.09637589 54.67821407 31.46361589 C55.81511021 39.29507939 55.50141161 47.21438083 55.36230469 55.10400391 C55.35891769 57.78539545 55.36029566 60.4663922 55.36761475 63.1477356 C55.37388857 68.90937109 55.33644119 74.66936824 55.26876068 80.43059158 C55.17097519 88.75991587 55.13995774 97.08845296 55.12490478 105.41828899 C55.09868114 118.93441843 55.01893301 132.44967576 54.90527344 145.96533203 C54.79502012 159.08963679 54.71013139 172.21370416 54.65917969 185.33837891 C54.65602701 186.14821447 54.65287432 186.95805003 54.64962611 187.79242606 C54.63396495 191.85538561 54.61880062 195.91834683 54.60388327 199.98130918 C54.47960722 233.65483842 54.26836096 267.32731207 54 301 C50.59065174 299.33346988 47.45240006 297.41510765 44.25 295.375 C6.05303944 271.56348117 -37.45832536 264.77705521 -81.75 264.75 C-82.74688843 264.74932526 -83.74377686 264.74865051 -84.77087402 264.74795532 C-108.20579086 264.77309 -130.30417191 267.42652859 -153.20947266 272.47509766 C-156.77944602 273.14661496 -160.39547016 273.54943377 -164 274 C-164 247.6 -164 221.2 -164 194 C-150.27921875 193.94392578 -150.27921875 193.94392578 -136.28125 193.88671875 C-130.48435988 193.85644081 -124.6874897 193.82541551 -118.890625 193.79101562 C-109.69077367 193.73656059 -100.49097771 193.68514627 -91.29101562 193.65356445 C-84.59023203 193.63054781 -77.88959416 193.59710905 -71.18892622 193.55129844 C-67.64290189 193.52741541 -64.09702143 193.50865453 -60.55091858 193.50238609 C-56.58651971 193.49518255 -52.62248048 193.46470476 -48.65820312 193.43237305 C-47.4900708 193.43380814 -46.32193848 193.43524323 -45.1184082 193.4367218 C-37.87887337 193.35329386 -31.58208361 192.92682441 -25.7578125 188.16796875 C-25.21898437 187.51441406 -24.68015625 186.86085938 -24.125 186.1875 C-23.57070313 185.54167969 -23.01640625 184.89585937 -22.4453125 184.23046875 C-19.5066914 179.6954616 -18.74812087 175.20767812 -18.69360352 169.87792969 C-18.67761612 168.68939392 -18.66162872 167.50085815 -18.64515686 166.27630615 C-18.63979416 165.00434387 -18.63443146 163.73238159 -18.62890625 162.421875 C-18.61992418 161.08677071 -18.61080209 159.75166736 -18.60154724 158.41656494 C-18.58510299 155.62257454 -18.57736584 152.82870327 -18.57446289 150.03466797 C-18.5690915 146.47951642 -18.53144591 142.9255078 -18.48571873 139.37067795 C-18.45575942 136.61315982 -18.44873526 133.85591032 -18.44773674 131.09824371 C-18.44156275 129.15854267 -18.41219095 127.21895925 -18.38221741 125.27947998 C-18.42788078 116.25500525 -19.95817242 109.04182758 -26.5 102.5 C-36.45090094 96.52945944 -42.13637525 98.63016476 -56 98 C-56 76.55 -56 55.1 -56 33 C-37 32.6875 -37 32.6875 -31.05078125 32.61206055 C-29.47133081 32.57973492 -27.89190143 32.54635622 -26.3125 32.51171875 C-25.11077148 32.50235291 -25.11077148 32.50235291 -23.88476562 32.49279785 C-17.70962189 32.33709817 -11.91597167 31.37555993 -6.9765625 27.3515625 C-6.53054688 26.78179687 -6.08453125 26.21203125 -5.625 25.625 C-5.16351563 25.06039062 -4.70203125 24.49578125 -4.2265625 23.9140625 C-0.95481088 18.80846284 -0.61265332 14.09417522 -0.375 8.1875 C-0.31699219 7.00510742 -0.31699219 7.00510742 -0.2578125 5.79882812 C-0.16411156 3.8662462 -0.08099221 1.93315624 0 0 Z " fill="#FAFAFB" transform="translate(451,186)"/>
<path d="M0 0 C0.89267578 0.00966797 1.78535156 0.01933594 2.70507812 0.02929688 C4.09823242 0.06700195 4.09823242 0.06700195 5.51953125 0.10546875 C6.45990234 0.11900391 7.40027344 0.13253906 8.36914062 0.14648438 C10.69068163 0.18183779 13.01106778 0.23118201 15.33203125 0.29296875 C15.33349646 1.2290418 15.33349646 1.2290418 15.33499128 2.18402541 C15.39324789 39.16023795 15.46703297 76.13638916 15.56101753 113.11252878 C15.57228586 117.55109312 15.58342429 121.98965778 15.59448242 126.42822266 C15.59668611 127.31187077 15.59888979 128.19551888 15.60116025 129.1059442 C15.63654438 143.41877122 15.66140222 157.73159818 15.68237827 172.04445274 C15.70413143 186.72789789 15.73717724 201.41128622 15.78073281 216.09468305 C15.80725788 225.15704015 15.82494695 234.21932644 15.83137729 243.28172044 C15.83662856 249.49393216 15.85283673 255.70605473 15.87769691 261.91821869 C15.89172091 265.50372727 15.90087939 269.08907623 15.89703941 272.67461395 C15.89300316 276.5612415 15.91202178 280.44756113 15.93330383 284.33413696 C15.92845626 285.46838061 15.92360868 286.60262426 15.91861421 287.77123892 C15.96900779 293.32951705 16.07627394 297.55344214 19.33203125 302.29296875 C25.71295113 307.69841836 33.0679402 306.84895812 41.06274414 306.79125977 C42.56188495 306.7950873 44.06102209 306.80071003 45.56015015 306.8079834 C48.78385474 306.81991528 52.00723346 306.81945766 55.23094368 306.80938911 C60.36041397 306.79373076 65.48955553 306.80758214 70.6190033 306.82542419 C80.6199701 306.85623416 90.62083595 306.85775109 100.62184143 306.85577393 C113.26657193 306.85438218 125.91122082 306.86531244 138.55589479 306.90435165 C142.8034349 306.9166516 147.05077555 306.9226736 151.29832649 306.9128437 C225.22021797 306.74437288 225.22021797 306.74437288 251.578125 323.9375 C254.89062758 325.56790907 256.67852687 325.80957892 260.33203125 325.29296875 C262.67925165 324.12220022 264.76400369 322.94583865 266.95703125 321.54296875 C276.04758494 316.11153586 284.53554142 313.28069789 295.08984375 312.2578125 C295.96090759 312.17326309 296.83197144 312.08871368 297.72943115 312.00160217 C309.32644616 310.94455806 320.94601482 310.58030709 332.58203125 310.23046875 C334.52851059 310.16785355 334.52851059 310.16785355 336.51431274 310.10397339 C357.68393792 309.42993542 378.85316129 309.19548273 400.03244448 309.06362891 C402.0750216 309.05080074 404.11759483 309.03746893 406.16016769 309.02398109 C419.22258348 308.93798348 432.28490679 308.85821039 445.34758276 308.82711673 C451.25124115 308.81252763 457.15478112 308.78383458 463.05836678 308.75083542 C465.52345056 308.73993626 467.98856453 308.7344214 470.45367241 308.73451614 C473.85823939 308.73429383 477.26226531 308.71600251 480.66674805 308.69360352 C481.66527927 308.69817534 482.6638105 308.70274717 483.69260025 308.70745754 C489.06384725 308.65139811 492.61062839 308.12563464 497.33203125 305.29296875 C497.99203125 305.29296875 498.65203125 305.29296875 499.33203125 305.29296875 C500.95679562 301.71071153 501.58391167 298.91736875 501.59374428 294.99251842 C501.60120977 293.93754451 501.60867526 292.88257059 501.61636698 291.79562777 C501.61443225 290.64290749 501.61249751 289.49018721 501.61050415 288.30253601 C501.61919275 286.45852926 501.61919275 286.45852926 501.62805688 284.57726985 C501.64212321 281.16803407 501.64728741 277.75899437 501.64870548 274.34974372 C501.65239996 270.6722001 501.66755567 266.99470167 501.68132019 263.31718445 C501.70359535 256.94664165 501.71860709 250.57611493 501.72868729 244.20554161 C501.74327205 234.99476503 501.7688083 225.78404443 501.79701857 216.5733007 C501.84249025 201.62952974 501.87910351 186.68575072 501.91015625 171.74194336 C501.94034025 157.2253274 501.97468983 142.70873116 502.01464844 128.19213867 C502.01710999 127.29735362 502.01957153 126.40256856 502.02210768 125.48066881 C502.03448225 120.99180041 502.04693879 116.50293225 502.05943608 112.01406419 C502.16300951 74.77372625 502.25221091 37.5333648 502.33203125 0.29296875 C504.72855653 0.21157733 507.12228561 0.15229866 509.51953125 0.10546875 C510.19306641 0.08033203 510.86660156 0.05519531 511.56054688 0.02929688 C516.08380565 -0.03689716 518.77207018 0.49312413 522.33203125 3.29296875 C522.9576264 5.68190145 522.9576264 5.68190145 522.95844364 8.57320404 C522.97086568 9.6745967 522.98328772 10.77598935 522.99608618 11.91075754 C522.98425045 13.12562137 522.97241472 14.3404852 522.96022034 15.59216309 C522.97086192 17.52231144 522.97086192 17.52231144 522.98171848 19.49145269 C523.00071065 23.07061074 522.98836869 26.64908894 522.97099555 30.22823024 C522.95766126 34.08515894 522.97304439 37.94198555 522.9848175 41.79890442 C523.00322809 49.35752278 522.99465913 56.91588321 522.97672928 64.47449362 C522.96272216 70.61572001 522.9588064 76.75687623 522.96217155 82.89811707 C522.96288772 84.20756629 522.96288772 84.20756629 522.96361835 85.54346904 C522.96464465 87.31670226 522.9657 89.08993547 522.96678411 90.86316866 C522.97535809 106.5545014 522.9586536 122.24570934 522.92895508 137.93701172 C522.90011597 153.17436974 522.89303322 168.41154796 522.90844727 183.64892578 C522.92519595 200.22842273 522.92925727 216.80783424 522.91173691 233.38733339 C522.90989245 235.1541624 522.90805773 236.92099141 522.90623283 238.68782043 C522.90532074 239.55720807 522.90440865 240.4265957 522.90346893 241.32232842 C522.89785522 247.45848645 522.90117846 253.59460288 522.90777779 259.73075867 C522.91549724 267.20540626 522.90880871 274.67987665 522.88360275 282.15448844 C522.87107523 285.97057162 522.86500018 289.78637847 522.87614441 293.60247231 C522.88797988 297.73316448 522.8689908 301.86312574 522.84669495 305.99377441 C522.85493571 307.20863824 522.86317648 308.42350207 522.87166697 309.67517996 C522.86061928 310.77657261 522.84957159 311.87796527 522.83818913 313.01273346 C522.83699764 313.96686331 522.83580616 314.92099317 522.83457857 315.90403605 C522.33203125 318.29296875 522.33203125 318.29296875 520.54690504 320.1008563 C517.01608424 322.00125146 513.36811775 321.67457436 509.45909119 321.61767578 C508.55280253 321.61656138 507.64651388 321.61544699 506.71276194 321.61429882 C503.66887496 321.6071806 500.62554817 321.57878818 497.58178711 321.55078125 C495.40203385 321.54179131 493.2222741 321.53427392 491.04251099 321.52812195 C486.34381578 321.51272282 481.64526403 321.48887059 476.94663811 321.45913696 C469.51239444 321.41417714 462.07830071 321.40038588 454.64393616 321.39331055 C444.21549015 321.38170398 433.78706585 321.36751685 423.35864258 321.34228516 C422.6968829 321.34069385 422.03512323 321.33910255 421.35331023 321.33746302 C411.30806131 321.31237125 401.26310453 321.26185272 391.21801758 321.20068359 C379.54477787 321.12997459 367.872128 321.09846936 356.19867235 321.11097336 C350.02233487 321.11589058 343.84753095 321.10041662 337.67149162 321.03643799 C331.8572028 320.97632391 326.04506584 320.9674675 320.23056412 320.99726295 C318.10169654 320.99905995 315.97271451 320.98214319 313.84417534 320.94470787 C301.02235212 320.36061915 301.02235212 320.36061915 290.24012905 326.24893951 C288.94430625 327.6983078 287.75918472 329.24449118 286.58385563 330.79317665 C283.84374973 333.83501914 282.12016464 334.22215132 278.1171875 334.71630859 C275.87741083 334.78789745 273.63501958 334.79791271 271.39453125 334.75390625 C270.19320557 334.76443024 268.99187988 334.77495422 267.75415039 334.78579712 C265.22958997 334.79323894 262.70481281 334.77324393 260.18066406 334.72705078 C256.33824614 334.66806416 252.50995247 334.72656483 248.66796875 334.796875 C246.20179204 334.78960528 243.73562405 334.77550999 241.26953125 334.75390625 C240.13588135 334.77617279 239.00223145 334.79843933 237.83422852 334.82138062 C234.34284566 334.70978731 231.65660599 334.38822847 228.33203125 333.29296875 C226.06996727 330.78939152 226.06996727 330.78939152 223.77890015 327.77809143 C219.7595526 323.28552725 216.34753704 321.58894738 210.3374331 321.08560514 C205.54037378 320.92516058 200.76465264 320.99598531 195.96728516 321.10766602 C193.80633122 321.11732842 191.64535052 321.12206426 189.484375 321.12226868 C184.84825832 321.13328152 180.21427219 321.17899677 175.57872391 321.25219917 C168.25058593 321.36785948 160.92324969 321.40649304 153.59432983 321.43528748 C142.00840975 321.49004395 130.42366409 321.59749841 118.83836019 321.72692674 C98.07354773 321.95740899 77.30807296 322.10293588 56.54235017 322.22194904 C49.25508405 322.26586973 41.9685785 322.33446873 34.68172765 322.4234668 C30.15610942 322.47554295 25.63045707 322.51170481 21.10466003 322.54417229 C19.00390022 322.5628675 16.90318954 322.58857495 14.80260849 322.62174988 C11.9386672 322.66620267 9.0755625 322.68606437 6.21133423 322.69996643 C5.37739313 322.71912111 4.54345203 322.7382758 3.68423998 322.75801092 C0.11392458 322.75253376 -2.35700839 322.42176306 -5.68408394 321.04374695 C-9.01997992 316.41832218 -8.34676484 311.42468002 -8.28942871 305.8735199 C-8.29581753 304.5858999 -8.30220635 303.29827991 -8.30878878 301.97164112 C-8.32581394 298.39472983 -8.31157653 294.81851639 -8.292274 291.24164164 C-8.27687265 287.38542163 -8.29024213 283.52928858 -8.30001831 279.67306519 C-8.31456037 272.11791677 -8.30229564 264.56303666 -8.28090507 257.00791364 C-8.25692134 248.21493923 -8.25860779 239.42202664 -8.26121098 230.62902678 C-8.26490292 214.94379081 -8.24405974 199.25868146 -8.20996094 183.57348633 C-8.17686277 168.34298502 -8.16270338 153.11261662 -8.16894531 137.88208008 C-8.1757047 121.30734333 -8.17326238 104.73266229 -8.15358591 88.15793377 C-8.15254643 87.28202198 -8.15150694 86.40611018 -8.15043595 85.5036556 C-8.14834502 83.74429186 -8.14623404 81.98492815 -8.14410278 80.22556446 C-8.13719879 74.09190948 -8.13653926 67.95827163 -8.13798523 61.82461357 C-8.13942284 54.35367279 -8.12977242 46.88284058 -8.10603887 39.41193586 C-8.09415427 35.59791492 -8.08706997 31.78404556 -8.09287643 27.97000694 C-8.09897585 23.84165914 -8.08193062 19.71373982 -8.06237793 15.58543396 C-8.06770586 14.37125225 -8.07303378 13.15707054 -8.07852316 11.90609545 C-8.06946652 10.80531949 -8.06040988 9.70454353 -8.0510788 8.57041073 C-8.04950759 7.61682295 -8.04793639 6.66323517 -8.04631758 5.68075079 C-7.66796875 3.29296875 -7.66796875 3.29296875 -6.43577242 1.48143917 C-4.14610222 -0.05787504 -2.74566651 -0.05246497 0 0 Z " fill="#1E84F5" transform="translate(255.66796875,187.70703125)"/>
<path d="M0 0 C3.04479999 0.01070399 6.08900701 0.00004846 9.13378906 -0.01269531 C25.83419371 -0.02621524 42.17213894 1.03170606 58.49316406 4.76074219 C60.1823999 5.14649414 60.1823999 5.14649414 61.90576172 5.54003906 C101.29448403 14.91753281 136.02639369 32.06360623 167.68066406 57.26074219 C168.24269531 57.70562988 168.80472656 58.15051758 169.38378906 58.60888672 C172.16310303 60.80946359 174.93036379 63.0240115 177.68066406 65.26074219 C177.35066406 65.92074219 177.02066406 66.58074219 176.68066406 67.26074219 C175.90123947 67.25408035 175.12181488 67.24741852 174.31877136 67.24055481 C166.83668338 67.1794961 159.35472239 67.13430024 151.87244701 67.10530567 C148.02919253 67.08989653 144.18615004 67.06913586 140.34301758 67.03442383 C90.93372485 66.60063616 41.75577423 72.81183299 3.68066406 107.26074219 C0.14037765 105.68174121 -2.65419038 103.52621281 -5.69433594 101.13574219 C-21.55977449 89.05859177 -39.51302108 82.39647878 -58.31933594 76.26074219 C-58.32868164 75.51501953 -58.33802734 74.76929688 -58.34765625 74.00097656 C-58.40169624 70.58692069 -58.48527898 67.17418564 -58.56933594 63.76074219 C-58.58351563 62.58769531 -58.59769531 61.41464844 -58.61230469 60.20605469 C-58.82409483 52.66632552 -59.35774208 46.50956702 -64.73022461 40.74755859 C-69.29816877 36.67271572 -73.61368691 35.03016772 -79.66040039 34.94189453 C-80.70110184 34.92202484 -81.74180328 34.90215515 -82.81404114 34.88168335 C-83.92567123 34.87013214 -85.03730133 34.85858093 -86.18261719 34.84667969 C-87.32973679 34.82731354 -88.47685638 34.80794739 -89.65873718 34.78799438 C-93.31636154 34.72829752 -96.97401753 34.68185217 -100.63183594 34.63574219 C-103.11427141 34.59755336 -105.59669375 34.5585011 -108.07910156 34.51855469 C-114.15906306 34.422604 -120.23910382 34.3375274 -126.31933594 34.26074219 C-104.11836676 17.33782858 -73.92598189 9.59352528 -47.00683594 4.01074219 C-46.27980469 3.85935791 -45.55277344 3.70797363 -44.80371094 3.55200195 C-29.88637479 0.65341148 -15.16421206 -0.06320447 0 0 Z " fill="#FAFAFA" transform="translate(509.3193359375,92.7392578125)"/>
<path d="M0 0 C15.35988524 -0.21062501 30.71970373 -0.36913566 46.08071041 -0.46630955 C53.2138858 -0.51263747 60.34616184 -0.57574851 67.47875977 -0.67895508 C73.69860681 -0.7689112 79.91780237 -0.82678196 86.13828188 -0.84679645 C89.42981953 -0.85849006 92.71906887 -0.89056927 96.01011467 -0.95157051 C99.69267199 -1.01710205 103.37139498 -1.02589414 107.05444336 -1.02172852 C108.67501396 -1.07026474 108.67501396 -1.07026474 110.32832336 -1.11978149 C114.93383245 -1.06356988 117.85979404 -0.89065796 121.56292915 2.00200081 C123.93409729 4.43885803 123.93409729 4.43885803 125.96292973 6.87185764 C128.99181941 10.03616106 131.74554819 10.88710537 136.04632568 11.27415466 C137.7476767 11.29011436 137.7476767 11.29011436 139.48339844 11.30639648 C141.42131256 11.33037758 141.42131256 11.33037758 143.39837646 11.35484314 C144.8020386 11.3612216 146.20570552 11.36661378 147.609375 11.37109375 C149.06040535 11.38007009 150.51143481 11.3891921 151.96246338 11.39845276 C155.00201662 11.41491779 158.04146006 11.42263797 161.08105469 11.42553711 C164.95577881 11.43091022 168.82945511 11.46855472 172.70388412 11.51428127 C175.701555 11.54418602 178.69897798 11.55126359 181.69678497 11.55226326 C183.12401362 11.55644115 184.55124469 11.5687768 185.97832489 11.58978081 C194.28312977 11.70225866 201.46724069 11.63436248 208 6 C208.99591408 4.44820793 208.99591408 4.44820793 210.01194763 2.86506653 C211.7520489 0.73762928 212.66858193 0.07554902 215.37919426 -0.54235363 C218.49303116 -0.74049822 221.55533524 -0.74159206 224.67504883 -0.68115234 C225.855961 -0.6820285 227.03687317 -0.68290466 228.25357056 -0.68380737 C231.48313747 -0.68034851 234.71113511 -0.65030732 237.94038987 -0.60836363 C241.31823772 -0.57080016 244.69611797 -0.56732693 248.07414246 -0.56021118 C254.4668543 -0.5415785 260.8589489 -0.492364 267.25138921 -0.43211424 C274.53060212 -0.36499903 281.80984486 -0.3320477 289.08929026 -0.30194163 C304.05987049 -0.23926267 319.02987345 -0.1337595 334 0 C290.85832293 43.43041862 224.03897419 62.89270266 164.25 63.3125 C126.70877914 63.21557978 89.7172661 54.58541621 56 38 C55.25411621 37.6385791 54.50823242 37.2771582 53.73974609 36.90478516 C34.31270598 27.40575923 16.18784257 15.35612064 0 1 C0 0.67 0 0.34 0 0 Z " fill="#FAFAFA" transform="translate(346,526)"/>
<path d="M0 0 C1.17769958 -0.00990463 2.35539917 -0.01980927 3.56878662 -0.03001404 C4.85722473 -0.02551239 6.14566284 -0.02101074 7.47314453 -0.01637268 C8.84654293 -0.02207617 10.21993658 -0.02904035 11.59332275 -0.03717041 C15.32057664 -0.0551182 19.04759533 -0.05393063 22.77487946 -0.04822803 C25.88635137 -0.04513891 28.99777793 -0.05122543 32.10924339 -0.05726677 C39.44868107 -0.07131531 46.78800236 -0.06974763 54.12744141 -0.05836487 C61.70065118 -0.04687915 69.27350701 -0.06096596 76.84667015 -0.08776134 C83.34869571 -0.10990594 89.85061007 -0.11655867 96.35267067 -0.11068493 C100.23615622 -0.10731164 104.11941479 -0.10975504 108.00286865 -0.12693596 C111.65392706 -0.14238381 115.30446025 -0.1384743 118.95549774 -0.11963081 C120.93471589 -0.11417785 122.9139575 -0.12847484 124.89312744 -0.14332581 C126.07082703 -0.13349167 127.24852661 -0.12365753 128.46191406 -0.11352539 C129.48543976 -0.11331611 130.50896545 -0.11310682 131.56350708 -0.1128912 C134.94416619 0.52152024 136.13036228 1.71642468 138.23095703 4.38768005 C138.7388916 6.89183044 138.7388916 6.89183044 138.74853516 9.7353363 C138.7611438 10.80324402 138.77375244 11.87115173 138.78674316 12.97142029 C138.77864624 14.11941101 138.77054932 15.26740173 138.76220703 16.45018005 C138.76603394 17.63362 138.76986084 18.81705994 138.77380371 20.03636169 C138.77652512 22.53791657 138.76914806 25.0394998 138.75244141 27.54100037 C138.73103706 31.37335054 138.75223748 35.2038258 138.77783203 39.03611755 C138.7751888 41.4658092 138.77006392 43.89549967 138.76220703 46.32518005 C138.77030396 47.47317078 138.77840088 48.6211615 138.78674316 49.80393982 C138.7678302 51.40580139 138.7678302 51.40580139 138.74853516 53.0400238 C138.74535278 53.97838074 138.74217041 54.91673767 138.7388916 55.88352966 C138.06281926 59.21661019 136.86247759 60.26869921 134.23095703 62.38768005 C131.56350708 62.89104462 131.56350708 62.89104462 128.46191406 62.89561462 C126.69536469 62.91253357 126.69536469 62.91253357 124.89312744 62.92979431 C123.60468933 62.92169739 122.31625122 62.91360046 120.98876953 62.90525818 C119.61536924 62.91067953 118.24197477 62.91780227 116.86859131 62.92649841 C113.1412607 62.9447336 109.41437296 62.93766375 105.68703461 62.92498207 C101.78646145 62.91485528 97.88592621 62.92424685 93.98535156 62.93052673 C87.43498933 62.9378041 80.8848075 62.9282132 74.33447266 62.90916443 C66.76124935 62.88739537 59.18845678 62.89444669 51.61524391 62.91647005 C45.11320623 62.93462161 38.61129822 62.93718362 32.10924339 62.92671537 C28.22577224 62.92047904 24.34250356 62.91964848 20.45904541 62.93286133 C16.80796393 62.94441583 13.1574378 62.93640225 9.50641632 62.9132843 C7.52721419 62.90547161 5.54796509 62.91735657 3.56878662 62.92979431 C2.39108704 62.91851501 1.21338745 62.90723572 0 62.89561462 C-1.53528854 62.89335247 -1.53528854 62.89335247 -3.10159302 62.89104462 C-6.48166461 62.25320387 -7.66956084 61.06050138 -9.76904297 58.38768005 C-10.27697754 55.83883667 -10.27697754 55.83883667 -10.28662109 52.93235779 C-10.29922974 51.84120163 -10.31183838 50.75004547 -10.3248291 49.62582397 C-10.31673218 48.45282242 -10.30863525 47.27982086 -10.30029297 46.0712738 C-10.30411987 44.86326614 -10.30794678 43.65525848 -10.31188965 42.41064453 C-10.31461103 39.85781521 -10.3072342 37.30495811 -10.29052734 34.75218201 C-10.26910453 30.83643224 -10.29033324 26.92251361 -10.31591797 23.00682068 C-10.3132751 20.52830099 -10.30815098 18.04978244 -10.30029297 15.5712738 C-10.30838989 14.39624802 -10.31648682 13.22122223 -10.3248291 12.0105896 C-10.31222046 10.9225856 -10.29961182 9.8345816 -10.28662109 8.71360779 C-10.28343872 7.75526535 -10.28025635 6.79692291 -10.27697754 5.80953979 C-9.76904297 3.38768005 -9.76904297 3.38768005 -8.09786224 1.76054382 C-5.19692627 0.05041116 -3.35822211 0.00797257 0 0 Z " fill="#1F86F4" transform="translate(296.76904296875,141.61231994628906)"/>
<path d="M0 0 C1.13401245 -0.00554901 2.2680249 -0.01109802 3.43640137 -0.01681519 C7.17865467 -0.02861008 10.91969691 -0.00433708 14.66186523 0.02148438 C17.26448003 0.02319544 19.86709655 0.02312984 22.4697113 0.0213623 C27.92120012 0.02141581 33.3723415 0.04113093 38.82373047 0.07324219 C45.12000102 0.11015066 51.41581701 0.11891452 57.71218163 0.11194468 C63.77882878 0.10563306 69.84528051 0.11661881 75.9119091 0.13591003 C78.4895241 0.14294407 81.06715284 0.14606408 83.6447773 0.1452179 C87.24520862 0.14701407 90.84499294 0.16838135 94.4453125 0.1953125 C96.04526314 0.1909166 96.04526314 0.1909166 97.67753601 0.18643188 C104.17669157 0.26149771 107.93021707 0.88749246 112.65795898 5.61523438 C112.92538452 7.99276733 112.92538452 7.99276733 112.94848633 11.01123047 C112.96124603 12.1393515 112.97400574 13.26747253 112.9871521 14.42977905 C112.98937775 15.65371368 112.99160339 16.87764832 112.99389648 18.13867188 C113.00388168 20.01795883 113.00388168 20.01795883 113.0140686 21.93521118 C113.02421111 24.59008956 113.02974842 27.2445587 113.02856445 29.89941406 C113.02836138 33.29818851 113.05564481 36.69612566 113.09010887 40.09470177 C113.11772503 43.33849385 113.11652725 46.58227815 113.11889648 49.82617188 C113.13326752 51.04605804 113.14763855 52.26594421 113.16244507 53.52279663 C113.15629181 54.65722198 113.15013855 55.79164734 113.14379883 56.96044922 C113.14664886 57.95813324 113.1494989 58.95581726 113.1524353 59.98373413 C112.52320852 63.33234838 111.26108918 64.49126188 108.65795898 66.61523438 C106.2329963 67.82771572 104.68170019 67.74896594 101.97135925 67.7624054 C100.48876869 67.77313835 100.48876869 67.77313835 98.97622681 67.78408813 C97.34371475 67.78812149 97.34371475 67.78812149 95.67822266 67.79223633 C93.96344978 67.80209312 93.96344978 67.80209312 92.21403503 67.81214905 C88.41799867 67.83191544 84.6220019 67.8435515 80.82592773 67.85351562 C79.53216028 67.85759115 78.23839283 67.86166668 76.9054203 67.86586571 C70.76568796 67.88458558 64.62597556 67.89914879 58.48622054 67.90747768 C51.3994362 67.91725 44.31296421 67.94356877 37.22628993 67.98397857 C31.08816046 68.0177781 24.95016233 68.02962274 18.81194496 68.03368187 C16.20080763 68.03856255 13.58967399 68.05021832 10.97859764 68.06871986 C7.32743641 68.09298498 3.67709554 68.09216899 0.02587891 68.08520508 C-1.59752411 68.10442017 -1.59752411 68.10442017 -3.25372314 68.12402344 C-10.58541658 68.07295279 -10.58541658 68.07295279 -14.49003601 65.71086121 C-17.35929441 62.46416648 -17.48150802 60.58240757 -17.55078125 56.3269043 C-17.57007187 55.22203171 -17.58936249 54.11715912 -17.60923767 52.97880554 C-17.66683828 47.9236465 -17.71624661 42.86863176 -17.74707031 37.81323242 C-17.7648793 35.14408035 -17.80278952 32.47740767 -17.84960938 29.80834961 C-17.91642123 25.96631129 -17.94404003 22.12573949 -17.96313477 18.28320312 C-17.99096542 17.09035202 -18.01879608 15.89750092 -18.04747009 14.66850281 C-18.04469559 13.55417374 -18.04192108 12.43984467 -18.0390625 11.29174805 C-18.04936996 10.31404953 -18.05967743 9.33635101 -18.07029724 8.32902527 C-17.22736084 5.18788751 -15.96742845 3.51058402 -13.34938335 1.56989002 C-9.13577416 -0.43402617 -4.57583737 -0.05700724 0 0 Z " fill="#724FFB" transform="translate(304.342041015625,297.384765625)"/>
<path d="M0 0 C11.4218932 -0.09258399 22.84369749 -0.16370604 34.26588917 -0.20724869 C39.5694025 -0.22814454 44.87265957 -0.25649873 50.17602539 -0.30175781 C55.29182652 -0.34514417 60.4073808 -0.36912205 65.52335167 -0.37950897 C67.47746354 -0.38691331 69.43156154 -0.40137189 71.38556862 -0.42292023 C74.11777823 -0.45185849 76.84896122 -0.45596004 79.58129883 -0.45410156 C80.79941757 -0.47567322 80.79941757 -0.47567322 82.04214478 -0.49768066 C87.45136295 -0.45773351 87.45136295 -0.45773351 90.00190735 1.67021179 C91.22098927 4.51584209 91.38087956 6.6324639 91.38818359 9.73071289 C91.39764008 10.8819313 91.40709656 12.03314972 91.4168396 13.21925354 C91.41076691 14.45787643 91.40469421 15.69649933 91.3984375 16.97265625 C91.40130768 18.24725204 91.40417786 19.52184784 91.40713501 20.83506775 C91.40917663 23.52943502 91.40514839 26.22298576 91.39111328 28.91723633 C91.37400395 32.36975621 91.38387683 35.82157732 91.40183067 39.27407169 C91.41527718 42.56945833 91.40586376 45.86476051 91.3984375 49.16015625 C91.40451019 50.40080338 91.41058289 51.6414505 91.4168396 52.91969299 C91.40265488 54.64179237 91.40265488 54.64179237 91.38818359 56.39868164 C91.38579681 57.41031876 91.38341003 58.42195587 91.38095093 59.46424866 C91 62 91 62 89.96252441 63.82582092 C86.87680226 65.67200962 83.70376446 65.41653187 80.21142578 65.38818359 C79.41922638 65.39344055 78.62702698 65.39869751 77.81082153 65.40411377 C75.1887853 65.41733044 72.56735506 65.4085683 69.9453125 65.3984375 C68.1231169 65.40045816 66.30092208 65.40336954 64.47872925 65.40713501 C60.657128 65.41156095 56.83573698 65.40512015 53.01416016 65.39111328 C48.11914842 65.37404546 43.22463101 65.38384556 38.32963753 65.40183067 C34.56521902 65.41268194 30.80091727 65.40921559 27.03649521 65.4014473 C25.23200293 65.39944774 23.42750002 65.40189597 21.62302017 65.40888596 C19.09751667 65.41651984 16.57280774 65.40486838 14.04736328 65.38818359 C13.30329224 65.39425629 12.55922119 65.40032898 11.79260254 65.40658569 C7.36474888 65.3524956 4.5195871 64.7355328 1 62 C-0.34049527 59.31900947 -0.1198052 57.26688794 -0.11352539 54.26513672 C-0.11344986 53.06404266 -0.11337433 51.86294861 -0.11329651 50.62545776 C-0.10813522 49.32335358 -0.10297394 48.02124939 -0.09765625 46.6796875 C-0.09579138 45.33733167 -0.0943678 43.99497516 -0.09336853 42.65261841 C-0.08954878 39.11804325 -0.07972312 35.58350913 -0.06866455 32.0489502 C-0.05843878 28.44279536 -0.05386841 24.8366339 -0.04882812 21.23046875 C-0.03810038 14.15362904 -0.02103045 7.0768172 0 0 Z " fill="#FCCF23" transform="translate(287,219)"/>
<path d="M0 0 C2.5 2 2.5 2 4 5 C3.58981133 13.98508511 1.15978795 22.76851994 -0.875 31.5 C-1.06985992 32.34347992 -1.26471985 33.18695984 -1.46548462 34.05599976 C-4.99491557 49.29789947 -8.96355173 64.40447143 -13.109375 79.48901367 C-15.17702186 87.03604706 -17.19928643 94.56931382 -18.85546875 102.21875 C-19.11948486 103.43393311 -19.38350098 104.64911621 -19.65551758 105.90112305 C-20.11802038 108.09404863 -20.56333924 110.29070709 -20.98706055 112.49145508 C-22.42312701 119.37790017 -22.42312701 119.37790017 -25.44140625 122.6328125 C-28.92593077 124.49477217 -31.11083131 124.63640942 -35 124 C-37.5 122.125 -37.5 122.125 -39 119 C-39.04520203 111.95773739 -37.23379277 105.00400008 -35.55859375 98.2109375 C-35.31521271 97.20155624 -35.07183167 96.19217499 -34.82107544 95.15220642 C-34.03301186 91.89153205 -33.23539575 88.63328092 -32.4375 85.375 C-31.88939519 83.11494804 -31.34179111 80.85477459 -30.79467773 78.59448242 C-27.46923265 64.8845734 -24.07359261 51.19277166 -20.59863281 37.52001953 C-18.37092359 28.69322482 -16.36913355 19.83299332 -14.63305664 10.89575195 C-12.98989785 2.80161713 -12.98989785 2.80161713 -10 0 C-6.16652698 -1.27782434 -3.91272241 -0.96101954 0 0 Z " fill="#0A1520" transform="translate(650,257)"/>
<path d="M0 0 C0.7904896 2.30473915 1.12134332 3.60366437 0.3984375 5.96484375 C-2.83165167 12.19077898 -6.11005603 16.72280793 -13 19 C-15.53617573 19.24609566 -15.53617573 19.24609566 -18.27082825 19.24050903 C-19.31264252 19.24325836 -20.35445679 19.24600769 -21.42784119 19.24884033 C-22.56000565 19.24164978 -23.6921701 19.23445923 -24.85864258 19.22705078 C-26.05906189 19.22734283 -27.2594812 19.22763489 -28.49627686 19.22793579 C-31.77900246 19.22678293 -35.06155656 19.2167669 -38.34424806 19.20278788 C-41.77821241 19.19026757 -45.21218029 19.18910899 -48.64616394 19.18673706 C-55.1448598 19.18052611 -61.64348821 19.16412052 -68.1421544 19.14403808 C-75.54236188 19.12166709 -82.94257262 19.11068264 -90.3428055 19.10064721 C-105.56191044 19.07975393 -120.78094386 19.04418159 -136 19 C-136 14.38 -136 9.76 -136 5 C-133.66097847 4.9845388 -133.66097847 4.9845388 -131.27470398 4.96876526 C-116.60359961 4.87115256 -101.93254053 4.76848867 -87.26150799 4.66066074 C-79.71838113 4.60535113 -72.17524955 4.55187284 -64.63208008 4.50268555 C-58.05848573 4.45981601 -51.48492589 4.41353101 -44.91138488 4.36312145 C-41.42982783 4.33654284 -37.94827752 4.31169032 -34.46668053 4.29092598 C-30.58280245 4.2676985 -26.69900559 4.23684667 -22.81518555 4.20532227 C-21.65712906 4.1995668 -20.49907257 4.19381134 -19.30592346 4.18788147 C-18.25003021 4.17809265 -17.19413696 4.16830383 -16.10624695 4.15821838 C-15.18721934 4.15176583 -14.26819174 4.14531328 -13.32131481 4.1386652 C-10.84157792 4.0911347 -10.84157792 4.0911347 -8 3 C-7.175 2.855625 -6.35 2.71125 -5.5 2.5625 C-2.76908631 2.1049928 -2.76908631 2.1049928 0 0 Z " fill="#E2E1E2" transform="translate(425,376)"/>
<path d="M0 0 C8.12306041 2.78849813 15.5416323 13.07155691 21.55712891 19.08789062 C23.34194411 20.87049385 25.13464928 22.64490953 26.92773438 24.41918945 C28.07014947 25.55867435 29.21209384 26.69863143 30.35351562 27.83911133 C30.88681488 28.36522507 31.42011414 28.89133881 31.96957397 29.43339539 C37.07710765 34.57270229 37.07710765 34.57270229 37.95507812 37.67114258 C37.86875286 41.88749774 37.41095841 44.07177952 34.84130859 47.45019531 C33.92752441 48.32619385 33.01374023 49.20219238 32.07226562 50.10473633 C31.33352707 50.82718285 31.33352707 50.82718285 30.5798645 51.56422424 C29.01024006 53.093912 27.42145098 54.60162408 25.83007812 56.10864258 C23.75990838 58.10212748 21.69747707 60.10353937 19.63476562 62.10473633 C18.88837578 62.8242598 18.88837578 62.8242598 18.12690735 63.55831909 C14.66257394 66.91707949 11.41844185 70.39769269 8.30688477 74.08349609 C5.86360414 76.95303806 3.82846974 79.31000684 0.00976562 80.04614258 C-3.3925058 80.24701469 -5.64987201 79.91804874 -8.54492188 78.10864258 C-10.7256385 74.56497806 -10.7982391 72.78014564 -10.04492188 68.67114258 C-8.07425953 65.64274453 -5.6088869 63.2031721 -3.04492188 60.67114258 C-1.83449219 59.4587793 -1.83449219 59.4587793 -0.59960938 58.22192383 C1.10222003 56.52269661 2.8079523 54.82736919 4.51757812 53.13598633 C8.68862258 48.91815131 12.66157804 44.61139271 15.95507812 39.67114258 C15.3284729 39.05239258 15.3284729 39.05239258 14.68920898 38.42114258 C-0.38349031 23.51275172 -0.38349031 23.51275172 -6.04492188 16.67114258 C-6.82867188 15.80489258 -7.61242187 14.93864258 -8.41992188 14.04614258 C-10.43020391 11.10803806 -11.04492188 9.23722496 -11.04492188 5.67114258 C-7.95959197 0.88356169 -5.7956634 -0.99272108 0 0 Z " fill="#0A1620" transform="translate(675.044921875,279.328857421875)"/>
<path d="M0 0 C0 0.99 0 1.98 0 3 C-0.7470819 3.00423194 -1.4941638 3.00846388 -2.26388454 3.01282406 C-20.51249062 3.11650636 -38.76106073 3.22519707 -57.00960445 3.33933926 C-65.83475961 3.39442089 -74.65991879 3.44785919 -83.48510742 3.49731445 C-91.18463384 3.54046594 -98.88413352 3.58681728 -106.58361822 3.63687855 C-110.65360063 3.66323293 -114.7235786 3.68807507 -118.79359245 3.70907402 C-140.30682339 3.74803477 -140.30682339 3.74803477 -161.7881012 4.78627014 C-166.85793092 5.12363257 -171.92185841 5.08806026 -177 5 C-134.02566795 -23.6495547 -47.16642664 -15.72214221 0 0 Z " fill="#DDDDDD" transform="translate(742,478)"/>
<path d="M0 0 C2.4375 1.5625 2.4375 1.5625 4 4 C4.6875 7.25 4.6875 7.25 4 11 C2.00391526 14.00920327 -0.43573184 16.46972782 -3 19 C-3.66 19.66128906 -4.32 20.32257813 -5 21.00390625 C-6.33399727 22.33529805 -7.67255913 23.66213186 -9.015625 24.984375 C-11.62109697 27.63087803 -14.03594356 30.41992982 -16.45703125 33.234375 C-18.21796344 35.24941639 -20.06973331 37.14694398 -22 39 C-20.42140174 42.84612073 -17.97344745 45.24153346 -15.02734375 48.1328125 C-14.54423233 48.61072235 -14.06112091 49.0886322 -13.56336975 49.58102417 C-12.02610959 51.10053614 -10.48230674 52.6131639 -8.9375 54.125 C-7.39002523 55.64484559 -5.84404074 57.16613419 -4.30091858 58.69039917 C-2.90429199 60.06918742 -1.50291677 61.44316065 -0.10131836 62.81689453 C3.05626525 66.097377 3.41492584 68.43952389 3.33984375 73.01953125 C3 75 3 75 0.9375 77.5625 C-3.06984945 79.52354335 -4.74493553 79.370275 -9 78 C-16.22049947 72.80098204 -22.38959363 65.76337517 -28.65698242 59.47338867 C-30.45442236 57.67052659 -32.25722661 55.87315015 -34.06054688 54.07617188 C-35.20605047 52.93000853 -36.35124439 51.78353558 -37.49609375 50.63671875 C-38.03455429 50.10028244 -38.57301483 49.56384613 -39.12779236 49.01115417 C-42.19946299 45.919909 -43.78757806 44.22949589 -44.53662109 39.89404297 C-43.74187824 34.12691446 -40.51212991 31.61531886 -36.4140625 27.6953125 C-35.64194427 26.93072723 -34.86982605 26.16614197 -34.0743103 25.37838745 C-31.6071468 22.94373129 -29.11646198 20.53475895 -26.625 18.125 C-24.95418893 16.4807303 -23.28489895 14.83491343 -21.6171875 13.1875 C-18.56696839 10.18759156 -15.51412112 7.19069962 -12.43994141 4.21533203 C-11.82261139 3.61689484 -11.20528137 3.01845764 -10.56924438 2.40188599 C-7.24617003 -0.5667857 -4.34265439 -0.37436676 0 0 Z " fill="#08141E" transform="translate(597,279)"/>
<path d="M0 0 C1.65654602 -0.00855011 1.65654602 -0.00855011 3.34655762 -0.01727295 C5.68301449 -0.02668453 8.01948441 -0.03324158 10.35595703 -0.03710938 C13.84042365 -0.04669393 17.32426824 -0.07770381 20.80859375 -0.109375 C45.34607305 -0.22391921 69.0251754 2.6341297 92.65625 9.265625 C93.5750293 9.5231958 94.49380859 9.7807666 95.44042969 10.04614258 C96.30055664 10.29517334 97.16068359 10.5442041 98.046875 10.80078125 C98.81547852 11.02258057 99.58408203 11.24437988 100.37597656 11.47290039 C102.40625 12.203125 102.40625 12.203125 105.40625 14.203125 C104.51543228 14.14581207 103.62461456 14.08849915 102.70680237 14.02944946 C79.20681443 12.57647326 55.72407968 11.96792642 32.18359375 11.7890625 C31.12770262 11.78103969 31.12770262 11.78103969 30.05048037 11.7728548 C21.36666948 11.70829876 12.68279909 11.65834201 3.99886572 11.61368966 C-3.50372049 11.57475271 -11.00623037 11.52552686 -18.50875103 11.47572017 C-33.87036148 11.37395576 -49.23201562 11.28421991 -64.59375 11.203125 C-64.59375 10.543125 -64.59375 9.883125 -64.59375 9.203125 C-50.00558747 5.82799746 -35.46621892 2.98456186 -20.59375 1.203125 C-19.97115295 1.12020203 -19.34855591 1.03727905 -18.70709229 0.95184326 C-12.46380052 0.17250231 -6.2872324 0.02583056 0 0 Z " fill="#DCDCDD" transform="translate(351.59375,466.796875)"/>
<path d="M0 0 C5.10057584 2.00379765 7.30903554 5.54006534 9.59770489 10.37578106 C11.66151998 16.09705688 11.41129566 21.84761659 11.3742218 27.86250305 C11.37819621 29.14945719 11.38217061 30.43641134 11.38626546 31.76236409 C11.39681518 35.31867954 11.38874771 38.87474229 11.37751496 42.43104661 C11.36865165 46.2721826 11.37712244 50.11328629 11.38337708 53.954422 C11.39285336 61.4715266 11.38627625 68.98853505 11.37411413 76.5056325 C11.36048206 85.25756231 11.36213295 94.00946931 11.36424746 102.76140704 C11.3674354 118.37228915 11.35577902 133.98312558 11.33618164 149.59399414 C11.31716196 164.74863067 11.31009859 179.90321371 11.31567383 195.05786133 C11.32172714 211.56083246 11.32156404 228.0637801 11.310188 244.56674927 C11.30898069 246.32507495 11.3077747 248.08340063 11.30657005 249.8417263 C11.30566475 251.13944918 11.30566475 251.13944918 11.30474115 252.46338869 C11.30085775 258.56753254 11.30125719 264.67166765 11.3031559 270.77581215 C11.30527456 278.20820011 11.30007838 285.64054116 11.28554235 293.07291589 C11.27828335 296.86668821 11.27423418 300.66039209 11.27878571 304.45417023 C11.28359235 308.56031988 11.27297656 312.66628112 11.26069641 316.77241516 C11.26447573 317.97997744 11.26825506 319.18753973 11.27214891 320.43169481 C11.26631671 321.52652057 11.26048452 322.62134634 11.25447559 323.74934864 C11.25360882 324.69773037 11.25274204 325.6461121 11.251849 326.62323266 C11 329 11 329 9 332 C8 331 8 331 7.87925351 328.85239357 C7.88125944 327.89413911 7.88326538 326.93588466 7.88533211 325.94859219 C7.88519116 324.84729833 7.8850502 323.74600448 7.88490498 322.61133808 C7.88986418 321.38627727 7.89482338 320.16121646 7.89993286 318.89903259 C7.90182627 316.9644886 7.90182627 316.9644886 7.90375793 314.99086291 C7.90736192 311.39425025 7.91717886 307.79767648 7.92791152 304.20107901 C7.93835917 300.32838409 7.94301874 296.45568217 7.94824219 292.58297729 C7.95797187 285.8658721 7.97102007 279.14877998 7.98596573 272.43168449 C8.00929718 261.81445328 8.02232845 251.19722115 8.03366089 240.57997131 C8.0376628 236.94967169 8.04173146 233.31937214 8.04582024 229.68907261 C8.04683946 228.78170095 8.04785869 227.87432928 8.04890881 226.93946151 C8.06066071 216.60197259 8.07453616 206.2644869 8.08935547 195.92700195 C8.0907079 194.98164106 8.09206033 194.03628016 8.09345375 193.06227196 C8.11562113 177.75175896 8.14548709 162.44126801 8.17732288 147.13077252 C8.20971383 131.41901582 8.23058184 115.70727063 8.24159515 99.99548441 C8.24882065 90.30118128 8.26552849 80.60698676 8.29439591 70.91272349 C8.31339677 64.26603486 8.32148112 57.61938956 8.32099093 50.972674 C8.32105395 47.13777647 8.3260232 43.30304939 8.34415817 39.46819115 C8.36371297 35.30864484 8.35997569 31.14944082 8.35403442 26.98985291 C8.36345507 25.78040715 8.37287571 24.57096139 8.38258183 23.32486576 C8.34573194 15.62288867 7.81494669 8.44859102 2.3125 2.5 C1.549375 1.675 0.78625 0.85 0 0 Z " fill="#22292F" transform="translate(784,176)"/>
<path d="M0 0 C2.64 0 5.28 0 8 0 C10.31 5.28 12.62 10.56 15 16 C17.31 10.72 19.62 5.44 22 0 C24.64 0 27.28 0 30 0 C31.18135474 6.48349807 31.11322974 12.86214507 31.0625 19.4375 C31.05798828 20.55060547 31.05347656 21.66371094 31.04882812 22.81054688 C31.03711193 25.54042101 31.02070699 28.27018174 31 31 C28.69 31 26.38 31 24 31 C23.67 25.39 23.34 19.78 23 14 C21.35 17.96 19.7 21.92 18 26 C16.02 26 14.04 26 12 26 C11.35165346 24.730447 10.70642185 23.45930294 10.0625 22.1875 C9.70285156 21.47980469 9.34320313 20.77210938 8.97265625 20.04296875 C8 18 8 18 7 15 C6.67 20.28 6.34 25.56 6 31 C3.69 31 1.38 31 -1 31 C-1.02952761 27.70835283 -1.04697292 24.41674062 -1.0625 21.125 C-1.07087891 20.2071875 -1.07925781 19.289375 -1.08789062 18.34375 C-1.10964173 12.1664353 -0.73930108 6.13278165 0 0 Z " fill="#F6F9FD" transform="translate(364,158)"/>
<path d="M0 0 C-0.56603677 4.05659687 -1.80649084 6.69910219 -4.125 10.0625 C-4.68445313 10.89910156 -5.24390625 11.73570312 -5.8203125 12.59765625 C-9.77818023 16.95982229 -12.62073889 18.78682437 -18.46875 19.31079102 C-22.633129 19.393987 -26.77457518 19.34953085 -30.9375 19.25 C-32.39906415 19.22990977 -33.86065486 19.21166344 -35.32226562 19.1953125 C-38.88270788 19.15492178 -42.43942246 19.07661733 -46 19 C-46 14.05 -46 9.1 -46 4 C-44.86981445 3.98018066 -43.73962891 3.96036133 -42.57519531 3.93994141 C-38.37803036 3.8638112 -34.18120874 3.77510521 -29.984375 3.68261719 C-28.16868879 3.64435809 -26.35292759 3.60949983 -24.53710938 3.578125 C-21.92550877 3.5324077 -19.31442312 3.47442464 -16.703125 3.4140625 C-15.89256653 3.40251129 -15.08200806 3.39096008 -14.24688721 3.37905884 C-10.36320695 3.27758757 -7.29750708 3.16201591 -4 1 C-2 0 -2 0 0 0 Z " fill="#E0E0E0" transform="translate(442,216)"/>
<path d="M0 0 C0.928125 0.495 1.85625 0.99 2.8125 1.5 C1.8125 3.5 0.8125 5.5 -0.1875 7.5 C-0.73921875 7.33628906 -1.2909375 7.17257813 -1.859375 7.00390625 C-4.45364007 6.44239586 -6.78585411 6.40260992 -9.4375 6.4375 C-10.77554687 6.45103516 -10.77554687 6.45103516 -12.140625 6.46484375 C-12.81609375 6.47644531 -13.4915625 6.48804688 -14.1875 6.5 C-14.1875 7.82 -14.1875 9.14 -14.1875 10.5 C-13.22328125 10.80292969 -12.2590625 11.10585937 -11.265625 11.41796875 C-9.98929751 11.84028299 -8.71327131 12.26350854 -7.4375 12.6875 C-6.18453125 13.09355469 -4.9315625 13.49960938 -3.640625 13.91796875 C0.11000419 15.6363 1.65547056 17.02419266 3.8125 20.5 C4.40587198 24.65360383 4.29324603 26.69875662 2.125 30.3125 C-2.92881389 35.09313476 -8.41884348 34.91135098 -15.0703125 34.8359375 C-19.23912045 34.38666747 -21.134328 33.29147154 -24.1875 30.5 C-22.4375 25.625 -22.4375 25.625 -20.1875 24.5 C-19.59453125 24.80679687 -19.0015625 25.11359375 -18.390625 25.4296875 C-15.72736319 26.72354164 -13.88002989 26.702435 -10.9375 26.625 C-9.59945313 26.59792969 -9.59945313 26.59792969 -8.234375 26.5703125 C-7.55890625 26.54710937 -6.8834375 26.52390625 -6.1875 26.5 C-5.8575 24.85 -5.5275 23.2 -5.1875 21.5 C-5.83976562 21.39042969 -6.49203125 21.28085938 -7.1640625 21.16796875 C-13.22156247 20.06904176 -18.68343454 19.00406546 -23.1875 14.5 C-23.7564878 11.1160199 -23.72006913 7.88713968 -23.1875 4.5 C-17.71546038 -2.74675517 -8.13227437 -3.5256486 0 0 Z " fill="#0D1423" transform="translate(357.1875,234.5)"/>
<path d="M0 0 C2.90234375 1.53125 2.90234375 1.53125 5 3 C4.34 4.98 3.68 6.96 3 9 C2.154375 8.67 1.30875 8.34 0.4375 8 C-3.20989216 6.93894046 -6.22274664 6.84890987 -10 7 C-10.33 8.32 -10.66 9.64 -11 11 C-8.12283687 12.91810876 -6.34757263 13.50728671 -3.0625 14.3125 C0.24366508 15.28745671 1.93377255 15.94481046 4.625 18.1875 C6.45313243 21.92686179 6.81860188 24.9152593 6 29 C3.59892631 33.09071815 1.42160545 34.53682722 -3 36 C-10.15824209 36.90797761 -15.11912507 36.18195551 -21 32 C-20.34 30.02 -19.68 28.04 -19 26 C-18.236875 26.33 -17.47375 26.66 -16.6875 27 C-11.74825349 28.33945668 -7.08536891 28.16287658 -2 28 C-2.495 25.525 -2.495 25.525 -3 23 C-3.81984375 22.75765625 -4.6396875 22.5153125 -5.484375 22.265625 C-7.10085938 21.76289063 -7.10085938 21.76289063 -8.75 21.25 C-10.35101563 20.76273437 -10.35101563 20.76273437 -11.984375 20.265625 C-15.22190399 18.90686931 -16.88139406 17.78631824 -19 15 C-19.86000262 11.56557397 -19.69880741 8.46049428 -19 5 C-14.44109221 -1.51272541 -7.41851772 -1.11417037 0 0 Z " fill="#F9F7FD" transform="translate(392,314)"/>
<path d="M0 0 C1.62109375 0.828125 1.62109375 0.828125 3.80859375 2.328125 C2.81859375 4.308125 1.82859375 6.288125 0.80859375 8.328125 C0.14859375 7.998125 -0.51140625 7.668125 -1.19140625 7.328125 C-5.05201658 6.04125489 -8.13290908 6.19054882 -12.19140625 6.328125 C-12.52140625 7.648125 -12.85140625 8.968125 -13.19140625 10.328125 C-10.33506533 12.23235228 -8.51212401 12.87019715 -5.25390625 13.703125 C1.76160415 15.79241569 1.76160415 15.79241569 3.80859375 19.328125 C4.61784089 23.91672846 4.46243175 27.23061122 2.05859375 31.265625 C-2.50506936 35.44898285 -6.31325622 35.74511359 -12.3515625 35.6640625 C-16.63854478 35.15693667 -19.5171921 33.54651845 -23.19140625 31.328125 C-22.53140625 29.348125 -21.87140625 27.368125 -21.19140625 25.328125 C-20.38703125 25.658125 -19.58265625 25.988125 -18.75390625 26.328125 C-14.15666766 27.61857794 -8.61669958 28.54077166 -4.19140625 26.328125 C-4.23799545 24.36214988 -4.23799545 24.36214988 -5.19140625 22.328125 C-7.83173202 21.10303696 -7.83173202 21.10303696 -11.00390625 20.328125 C-15.48704484 19.10495442 -18.31960875 18.08670083 -21.19140625 14.328125 C-21.93620836 11.26676926 -21.75342722 8.41924033 -21.19140625 5.328125 C-16.54795008 -2.10140487 -8.08333606 -2.47831337 0 0 Z " fill="#F9F7FD" transform="translate(361.19140625,314.671875)"/>
<path d="M0 0 C2.31 0 4.62 0 7 0 C7 4.29 7 8.58 7 13 C10.96 13 14.92 13 19 13 C19 9.04 19 5.08 19 1 C21.31 1 23.62 1 26 1 C26 11.23 26 21.46 26 32 C23.69 32 21.38 32 19 32 C19 28.04 19 24.08 19 20 C15.04 20 11.08 20 7 20 C7 23.96 7 27.92 7 32 C4.69 32 2.38 32 0 32 C0 21.44 0 10.88 0 0 Z " fill="#F2F7FD" transform="translate(301,157)"/>
<path d="M0 0 C1.640625 0.984375 1.640625 0.984375 3.890625 3.234375 C3.890625 4.554375 3.890625 5.874375 3.890625 7.234375 C2.203125 8.421875 2.203125 8.421875 -0.109375 9.234375 C-0.8725 8.76 -1.635625 8.285625 -2.421875 7.796875 C-5.10455822 5.9359441 -5.10455822 5.9359441 -8.671875 6.234375 C-12.14058844 7.00806203 -12.14058844 7.00806203 -14.546875 9.171875 C-16.79254747 13.57339304 -16.86385749 17.3898032 -16.109375 22.234375 C-14.91338457 25.50161477 -14.91338457 25.50161477 -12.109375 27.234375 C-7.86112168 27.87851449 -4.17669576 27.59014859 -0.109375 26.234375 C-0.109375 25.574375 -0.109375 24.914375 -0.109375 24.234375 C1.828125 24.984375 1.828125 24.984375 3.890625 26.234375 C4.640625 28.359375 4.640625 28.359375 4.890625 30.234375 C-0.31850161 34.59877838 -3.85933508 35.61092222 -10.54296875 35.50390625 C-15.39354925 34.99448455 -18.33760264 33.10507882 -21.6484375 29.609375 C-25.27968925 24.74065757 -25.86591507 20.12825661 -25.59375 14.140625 C-24.61333377 8.2581276 -21.71847149 4.80422523 -17.546875 0.734375 C-12.0258371 -1.67480517 -5.74205295 -2.08415255 0 0 Z " fill="#F7F5FD" transform="translate(328.109375,314.765625)"/>
<path d="M0 0 C2.64 0 5.28 0 8 0 C8.05815112 4.39577761 8.09364767 8.79145598 8.125 13.1875 C8.14175781 14.43337891 8.15851563 15.67925781 8.17578125 16.96289062 C8.18222656 18.16494141 8.18867188 19.36699219 8.1953125 20.60546875 C8.20578613 21.71043701 8.21625977 22.81540527 8.22705078 23.95385742 C7.90389926 28.28929997 6.83669109 31.03257593 4 34.3125 C-0.32187993 36.74355746 -4.1474502 36.80488864 -9 36 C-11.40085343 34.90138462 -12.95748184 33.72001529 -15 32 C-14.34 30.35 -13.68 28.7 -13 27 C-9 27 -9 27 -5.3125 27.5625 C-3.6728125 27.7790625 -3.6728125 27.7790625 -2 28 C-0.19605125 26.19605125 -0.76294211 23.43322201 -0.68359375 20.99609375 C-0.62075195 19.17368164 -0.62075195 19.17368164 -0.55664062 17.31445312 C-0.51732422 16.03505859 -0.47800781 14.75566406 -0.4375 13.4375 C-0.39431641 12.15423828 -0.35113281 10.87097656 -0.30664062 9.54882812 C-0.200152 6.36600147 -0.09814038 3.18309326 0 0 Z " fill="#091124" transform="translate(318,233)"/>
<path d="M0 0 C2.31 0 4.62 0 7 0 C7 8.58 7 17.16 7 26 C10.96 26 14.92 26 19 26 C19 27.98 19 29.96 19 32 C12.73 32 6.46 32 0 32 C0 21.44 0 10.88 0 0 Z " fill="#FAFCFD" transform="translate(403,157)"/>
<path d="M0 0 C7.92 0 15.84 0 24 0 C24 1.65 24 3.3 24 5 C21.36 5.33 18.72 5.66 16 6 C15.67 14.25 15.34 22.5 15 31 C13.02 31 11.04 31 9 31 C9 22.42 9 13.84 9 5 C6.03 5 3.06 5 0 5 C0 3.35 0 1.7 0 0 Z " fill="#FCFCFD" transform="translate(333,158)"/>
<path d="M0 0 C0.99 0.495 0.99 0.495 2 1 C3.66392045 1.67349161 5.33032028 2.3409159 7 3 C7 3.33 7 3.66 7 4 C-41.84 4 -90.68 4 -141 4 C-141 3.67 -141 3.34 -141 3 C-94.8 2.67 -48.6 2.34 -1 2 C-0.67 1.34 -0.34 0.68 0 0 Z " fill="#CBCACB" transform="translate(733,476)"/>
<path d="M0 0 C2.04255727 0.00532294 4.08489114 0.00004915 6.12744141 -0.00634766 C14.06826892 -0.00995384 21.91035842 0.31273859 29.81103516 1.13037109 C30.30603516 2.61537109 30.30603516 2.61537109 30.81103516 4.13037109 C24.6911244 4.01159349 18.5713586 3.88731221 12.45166016 3.75805664 C10.37226351 3.71489752 8.29283576 3.67321009 6.21337891 3.63305664 C3.21458586 3.5748904 0.21594667 3.51133247 -2.78271484 3.44677734 C-4.16444885 3.4217086 -4.16444885 3.4217086 -5.57409668 3.39613342 C-10.84992466 3.27659861 -15.9642731 2.87942129 -21.18896484 2.13037109 C-21.18896484 1.80037109 -21.18896484 1.47037109 -21.18896484 1.13037109 C-14.12811708 -0.01022739 -7.14257522 -0.02209219 0 0 Z " fill="#D1D2D4" transform="translate(655.18896484375,466.86962890625)"/>
<path d="M0 0 C0.74822021 0.1846582 1.49644043 0.36931641 2.26733398 0.55957031 C7.50164801 1.8759642 12.61295237 3.40470995 17.6875 5.25 C17.6875 5.58 17.6875 5.91 17.6875 6.25 C13.89563036 6.10917465 10.10406021 5.96140653 6.3125 5.8125 C5.25160156 5.77318359 4.19070313 5.73386719 3.09765625 5.69335938 C-3.40456713 5.43406826 -9.84667092 4.98783964 -16.3125 4.25 C-15.6875 1.8125 -15.6875 1.8125 -14.3125 -0.75 C-9.1700047 -2.29196587 -5.03539892 -1.30155345 0 0 Z " fill="#E7E6E7" transform="translate(439.3125,474.75)"/>
<path d="M0 0 C0.65919937 -0.00095673 1.31839874 -0.00191345 1.99757385 -0.00289917 C3.38160295 -0.00357481 4.76563533 -0.00176388 6.1496582 0.00244141 C8.24502835 0.00778984 10.34018335 0.00247981 12.43554688 -0.00390625 C18.96988073 -0.00682141 25.35648471 0.08255429 31.81640625 1.1328125 C31.81640625 1.4628125 31.81640625 1.7928125 31.81640625 2.1328125 C27.34485799 3.24253577 22.95349172 3.29417267 18.375 3.30078125 C17.57030777 3.30410965 16.76561554 3.30743805 15.9365387 3.31086731 C14.24130828 3.31591408 12.546068 3.31827633 10.85083008 3.31811523 C8.25911186 3.3203081 5.66781525 3.33850477 3.07617188 3.35742188 C1.4257827 3.360355 -0.22460849 3.36234034 -1.875 3.36328125 C-3.03449913 3.37405952 -3.03449913 3.37405952 -4.21742249 3.38505554 C-8.02074 3.36890069 -10.96031462 3.27829937 -14.18359375 1.1328125 C-9.41015527 0.36353146 -4.83318852 0.00450107 0 0 Z " fill="#181F26" transform="translate(504.18359375,72.8671875)"/>
<path d="M0 0 C3.7538853 0.03381879 6.80692596 0.78527039 10.3125 2.1875 C10.003125 2.785625 9.69375 3.38375 9.375 4 C8.21040296 6.27706772 8.21040296 6.27706772 7.3125 9.1875 C8.6325 9.8475 9.9525 10.5075 11.3125 11.1875 C11.3125 12.1775 11.3125 13.1675 11.3125 14.1875 C10.69375 13.589375 10.075 12.99125 9.4375 12.375 C5.86873446 9.87686412 2.69964975 8.96383502 -1.48046875 7.8984375 C-3.6875 7.1875 -3.6875 7.1875 -5.6875 5.1875 C-5.01744255 0.76512081 -4.64029932 0.23594742 0 0 Z " fill="#6945FC" transform="translate(352.6875,319.8125)"/>
<path d="M0 0 C1.34384766 -0.03867188 1.34384766 -0.03867188 2.71484375 -0.078125 C3.48957031 0.03015625 4.26429688 0.1384375 5.0625 0.25 C5.7225 1.24 6.3825 2.23 7.0625 3.25 C6.7325 4.24 6.4025 5.23 6.0625 6.25 C6.7225 6.25 7.3825 6.25 8.0625 6.25 C8.0625 7.24 8.0625 8.23 8.0625 9.25 C9.3825 9.91 10.7025 10.57 12.0625 11.25 C12.0625 12.24 12.0625 13.23 12.0625 14.25 C11.19625 13.38375 11.19625 13.38375 10.3125 12.5 C5.62531998 9.25502922 0.48856248 7.87695334 -4.9375 6.25 C-5.31968767 4.59385343 -5.65145102 2.92542976 -5.9375 1.25 C-4.27065985 -0.41684015 -2.28106931 0.03927236 0 0 Z " fill="#F6D823" transform="translate(347.9375,239.75)"/>
<path d="M0 0 C0.33 0 0.66 0 1 0 C1.22506224 4.45765572 1.4272243 8.91605688 1.625 13.375 C1.68945312 14.64601562 1.75390625 15.91703125 1.8203125 17.2265625 C1.871875 18.43828125 1.9234375 19.65 1.9765625 20.8984375 C2.02893066 22.01911621 2.08129883 23.13979492 2.13525391 24.29443359 C2 27 2 27 0 29 C-3.5625 29.1875 -3.5625 29.1875 -7 29 C-8.78147298 27.21852702 -8.337761 24.54120228 -8.5 22.125 C-8.72347251 18.81281812 -8.94792065 16.15623804 -10 13 C-9.0625 9.8125 -9.0625 9.8125 -8 7 C-7.67 7 -7.34 7 -7 7 C-7 13.6 -7 20.2 -7 27 C-4.69 27 -2.38 27 0 27 C0 18.09 0 9.18 0 0 Z " fill="#086BF3" transform="translate(395,162)"/>
<path d="M0 0 C0 0.33 0 0.66 0 1 C-3.91751068 0.91909294 -7.83346816 0.80625068 -11.75 0.6875 C-12.86117188 0.66494141 -13.97234375 0.64238281 -15.1171875 0.61914062 C-16.18710937 0.58369141 -17.25703125 0.54824219 -18.359375 0.51171875 C-19.34389648 0.48553467 -20.32841797 0.45935059 -21.34277344 0.43237305 C-24.34168553 -0.05559767 -25.75607907 -1.00048955 -28 -3 C-17.5522872 -4.77833409 -10.00074175 -3.79046726 0 0 Z " fill="#CACCCD" transform="translate(457,480)"/>
<path d="M0 0 C0.33 0 0.66 0 1 0 C1 14.52 1 29.04 1 44 C0.01 44 -0.98 44 -2 44 C-1.83923477 43.42509827 -1.67846954 42.85019653 -1.51283264 42.25787354 C-1.01387591 40.06109215 -0.84446567 38.12159296 -0.79467773 35.87402344 C-0.7647599 34.67323151 -0.7647599 34.67323151 -0.73423767 33.44818115 C-0.71752518 32.59387512 -0.70081268 31.73956909 -0.68359375 30.859375 C-0.66281265 29.97719299 -0.64203156 29.09501099 -0.62062073 28.18609619 C-0.55535133 25.37414169 -0.49634553 22.56209555 -0.4375 19.75 C-0.39429327 17.84113644 -0.35067829 15.93228207 -0.30664062 14.0234375 C-0.19969313 9.34905174 -0.09836215 4.67457398 0 0 Z " fill="#F3F3F4" transform="translate(796,464)"/>
<path d="M0 0 C-3 2 -3 2 -6 3 C-3.36 3.33 -0.72 3.66 2 4 C2 4.33 2 4.66 2 5 C-5.35793733 5.91160286 -12.58982977 6.11459026 -20 6 C-17.02187403 4.01458269 -14.50156031 3.01174724 -11.125 1.875 C-10.09632813 1.52179688 -9.06765625 1.16859375 -8.0078125 0.8046875 C-5.17280569 0.04623113 -2.91359176 -0.16126892 0 0 Z " fill="#EFF0F0" transform="translate(585,477)"/>
<path d="M0 0 C4.95 0 9.9 0 15 0 C15 0.33 15 0.66 15 1 C21.93 1.33 28.86 1.66 36 2 C36 2.33 36 2.66 36 3 C31.87506128 3.05875981 27.75023232 3.09384938 23.625 3.125 C22.46871094 3.14175781 21.31242187 3.15851563 20.12109375 3.17578125 C13.15632877 3.2151302 6.75966208 2.7135811 0 1 C0 0.67 0 0.34 0 0 Z " fill="#18222B" transform="translate(346,450)"/>
<path d="M0 0 C3 1 3 1 4 3 C6.01669827 4.13350534 6.01669827 4.13350534 8 5 C6.8125 6.5625 6.8125 6.5625 5 8 C2.4375 8 2.4375 8 0 7 C-1.3125 4.4375 -1.3125 4.4375 -2 2 C-1.34 1.34 -0.68 0.68 0 0 Z " fill="#101924" transform="translate(306,259)"/>
<path d="M0 0 C2.31 0.33 4.62 0.66 7 1 C6.67 2.65 6.34 4.3 6 6 C2.30099992 5.11223998 -1.34550461 4.05418136 -5 3 C-5 2.67 -5 2.34 -5 2 C-3.35 1.67 -1.7 1.34 0 1 C0 0.67 0 0.34 0 0 Z " fill="#0D1223" transform="translate(351,236)"/>
<path d="M0 0 C1.12758089 3.38274266 0.81750262 4.76778223 0.0625 8.1875 C-0.13214844 9.08855469 -0.32679688 9.98960937 -0.52734375 10.91796875 C-0.68332031 11.60503906 -0.83929687 12.29210937 -1 13 C-1.99 13.33 -2.98 13.66 -4 14 C-3.91276622 12.22825181 -3.80458345 10.45752623 -3.6875 8.6875 C-3.62949219 7.70136719 -3.57148437 6.71523438 -3.51171875 5.69921875 C-2.95377187 2.75615543 -2.31459868 1.81817001 0 0 Z " fill="#151D25" transform="translate(639,261)"/>
<path d="M0 0 C1.07894531 0.03480469 2.15789063 0.06960937 3.26953125 0.10546875 C4.35621094 0.13253906 5.44289063 0.15960938 6.5625 0.1875 C7.80966797 0.23970703 7.80966797 0.23970703 9.08203125 0.29296875 C9.08203125 1.28296875 9.08203125 2.27296875 9.08203125 3.29296875 C4.13203125 3.29296875 -0.81796875 3.29296875 -5.91796875 3.29296875 C-2.91796875 0.29296875 -2.91796875 0.29296875 0 0 Z " fill="#131D28" transform="translate(676.91796875,158.70703125)"/>
<path d="M0 0 C0.99 0.33 1.98 0.66 3 1 C4.1875 4.5625 4.1875 4.5625 5 8 C4.34 8 3.68 8 3 8 C2.67 8.66 2.34 9.32 2 10 C1.34 6.7 0.68 3.4 0 0 Z M5 2 C5.33 3.32 5.66 4.64 6 6 C5.34 6 4.68 6 4 6 C4.33 4.68 4.66 3.36 5 2 Z " fill="#101C20" transform="translate(334,239)"/>
<path d="M0 0 C1.98362069 2.91708924 1.9876191 4.12380904 1.625 7.75 C1.41875 8.8225 1.2125 9.895 1 11 C0.01 11.33 -0.98 11.66 -2 12 C-1 3.42857143 -1 3.42857143 0 0 Z " fill="#171D23" transform="translate(623,320)"/>
<path d="M0 0 C4.52615993 3.67832017 8.39424999 7.41086363 12 12 C10.68 12 9.36 12 8 12 C7.79375 11.46375 7.5875 10.9275 7.375 10.375 C5.72085402 7.51783877 3.65454822 5.59486989 1.2421875 3.3671875 C0 2 0 2 0 0 Z " fill="#181C21" transform="translate(682,285)"/>
<path d="M0 0 C0 0.99 0 1.98 0 3 C-3.3 3.33 -6.6 3.66 -10 4 C-9.67 3.01 -9.34 2.02 -9 1 C-5.846632 0.29925156 -3.27275026 0 0 0 Z " fill="#161D26" transform="translate(596,162)"/>
<path d="M0 0 C2.64 0.33 5.28 0.66 8 1 C6.02 1.99 6.02 1.99 4 3 C4.33 3.66 4.66 4.32 5 5 C3.02 5 1.04 5 -1 5 C-0.67 3.35 -0.34 1.7 0 0 Z " fill="#1E2021" transform="translate(340,261)"/>
<path d="M0 0 C0.66 0 1.32 0 2 0 C2.04241723 2.33294775 2.04092937 4.66702567 2 7 C1 8 1 8 -1.5625 8.0625 C-2.366875 8.041875 -3.17125 8.02125 -4 8 C-4 7.34 -4 6.68 -4 6 C-2.68 6 -1.36 6 0 6 C0 4.02 0 2.04 0 0 Z " fill="#177DF4" transform="translate(422,183)"/>
<path d="M0 0 C4.571279 0.54855348 8.67435795 1.41744803 13 3 C13 3.33 13 3.66 13 4 C9.37 3.67 5.74 3.34 2 3 C2 2.34 2 1.68 2 1 C1.34 0.67 0.68 0.34 0 0 Z " fill="#F3F3F3" transform="translate(444,477)"/>
<path d="M0 0 C0.33 0.66 0.66 1.32 1 2 C-1.52475462 3.26237731 -3.31200466 3.09856404 -6.125 3.0625 C-7.03507813 3.05347656 -7.94515625 3.04445313 -8.8828125 3.03515625 C-9.58148437 3.02355469 -10.28015625 3.01195312 -11 3 C-7.24528933 -0.16492205 -4.90567888 -0.28301994 0 0 Z " fill="#1D262F" transform="translate(532,588)"/>
<path d="M0 0 C2.31 0 4.62 0 7 0 C7.33 0.99 7.66 1.98 8 3 C5.03 2.67 2.06 2.34 -1 2 C-0.67 1.34 -0.34 0.68 0 0 Z " fill="#161D24" transform="translate(534,91)"/>
<path d="M0 0 C3.3 0 6.6 0 10 0 C9.67 0.99 9.34 1.98 9 3 C5.625 3.1875 5.625 3.1875 2 3 C1.34 2.01 0.68 1.02 0 0 Z " fill="#19232B" transform="translate(486,604)"/>
<path d="M0 0 C2.31 0.33 4.62 0.66 7 1 C7 1.66 7 2.32 7 3 C8.32 3.33 9.64 3.66 11 4 C9.4375 4.75 9.4375 4.75 7 5 C4.49713591 3.86915563 2.32992278 2.47860484 0 1 C0 0.67 0 0.34 0 0 Z " fill="#151B20" transform="translate(624,116)"/>
<path d="M0 0 C0.33 0.99 0.66 1.98 1 3 C-2.63 2.67 -6.26 2.34 -10 2 C-10 1.67 -10 1.34 -10 1 C-6.56484998 0.37542727 -3.50935186 0 0 0 Z " fill="#D2D2D4" transform="translate(615,470)"/>
<path d="M0 0 C5.75 -0.125 5.75 -0.125 8 1 C8 1.66 8 2.32 8 3 C5.36 3 2.72 3 0 3 C0 2.01 0 1.02 0 0 Z " fill="#CCCDCF" transform="translate(628,468)"/>
<path d="M0 0 C0.33 0.66 0.66 1.32 1 2 C0 4 0 4 -3.0625 5.125 C-4.5165625 5.558125 -4.5165625 5.558125 -6 6 C-6.66 5.34 -7.32 4.68 -8 4 C-5.36 2.68 -2.72 1.36 0 0 Z " fill="#208DEA" transform="translate(755,492)"/>
<path d="M0 0 C2.72869407 0.03287583 5.2966618 0.56397771 8 1 C5.24075815 2.80411967 4.11027897 3.0127245 0.75 2.625 C-0.1575 2.41875 -1.065 2.2125 -2 2 C-1.34 1.34 -0.68 0.68 0 0 Z " fill="#151C25" transform="translate(439,473)"/>
<path d="M0 0 C0 0.99 0 1.98 0 3 C-2.875 3.125 -2.875 3.125 -6 3 C-6.66 2.34 -7.32 1.68 -8 1 C-5.10765685 0.17361624 -3.11257569 0 0 0 Z " fill="#1D2228" transform="translate(602,455)"/>
<path d="M0 0 C-2.1413437 2.46254526 -3.69870394 3.69050349 -7 4 C-7.99 3.34 -8.98 2.68 -10 2 C-3.375 -1.125 -3.375 -1.125 0 0 Z " fill="#151F27" transform="translate(428,105)"/>
</svg>
